# xmcd CD Database Entry
#
# Track frame offsets:
# 150
# 18117
# 30422
# 44210
# 57620
# 78967
# 91395
# 104305
# 121830
# 136457
# 151152
# 165045
# 179910
# 196257
#
# Disc length: 2839 seconds
#
# Revision: 1
# Processed by: cddbd v1.4PL0 Copyright (c) Steve Scherf et al.
# Submitted via: RSJCDWriter_freedb_lib_OS/2 1.02
#
DISCID=af0b150e
DTITLE=Sam Rocket and his Blues Prisoners
DYEAR=1900
DGENRE=
TTITLE0=Swing King
TTITLE1=Ready to play
TTITLE2=Shaky Sunday
TTITLE3=Hush your mouth
TTITLE4=No more lies
TTITLE5=Wasn't that good
TTITLE6=Street walking woman
TTITLE7=Aces high
TTITLE8=Love don't love nobody
TTITLE9=She's going to ruin me
TTITLE10=Looped
TTITLE11=Ain't no big deal on you
TTITLE12=Boogie woogie baby
TTITLE13=Got love if you want it
EXTD=p1999 Last Buzz Record Co.
EXTT0=
EXTT1=
EXTT2=
EXTT3=
EXTT4=
EXTT5=
EXTT6=
EXTT7=
EXTT8=
EXTT9=
EXTT10=
EXTT11=
EXTT12=
EXTT13=
PLAYORDER=
